<svg xmlns="http://www.w3.org/2000/svg" viewBox="0 0 256 256">
  <defs>
    <linearGradient id="blue" x1="38" y1="18" x2="204" y2="232" gradientUnits="userSpaceOnUse">
      <stop stop-color="#18AEEF"/>
      <stop offset="1" stop-color="#0C43C8"/>
    </linearGradient>
    <linearGradient id="river" x1="45" y1="158" x2="201" y2="198" gradientUnits="userSpaceOnUse">
      <stop stop-color="#19B9F2"/>
      <stop offset="1" stop-color="#0C57D7"/>
    </linearGradient>
  </defs>
  <path d="M128 8C61.7 8 8 61.7 8 128c0 42.4 22 79.6 55.2 100.9L128 248l64.8-19.1C226 207.6 248 170.4 248 128 248 61.7 194.3 8 128 8Z" fill="url(#blue)"/>
  <circle cx="128" cy="123" r="94" fill="#fff"/>
  <path d="M48 162c38-21 94-33 156-15 3.3.9 6.5 2 9.8 3.1-4.7 10.9-11.4 20.7-19.8 28.8-48-11.4-91.8-6.4-132.7 18.5A93.5 93.5 0 0 1 48 162Z" fill="#78C51B"/>
  <path d="M56 188c46.9-14.8 89.2-9.1 128 9.1-13.1 10.9-29.9 17.3-48.2 17.3-29.4 0-54.9-10.4-79.8-26.4Z" fill="#38A516"/>
  <path d="M45 214c50.3-6.4 95.5-31.5 159.2-38.2-6.6 10-15.4 18.8-25.7 25.5-25.1 16.4-50 21.8-82.4 34.4L45 214Z" fill="url(#river)"/>
  <circle cx="88" cy="82" r="20" fill="#FDB713"/>
  <path d="M60 129l21-16 21 16v30H60v-30Z" fill="#188CE1"/>
  <rect x="78" y="138" width="9" height="21" fill="#fff"/>
  <rect x="108" y="108" width="41" height="57" rx="3" fill="#1687DB"/>
  <rect x="118" y="120" width="10" height="11" fill="#fff"/>
  <rect x="135" y="120" width="10" height="11" fill="#fff"/>
  <rect x="118" y="142" width="10" height="11" fill="#fff"/>
  <rect x="135" y="142" width="10" height="11" fill="#fff"/>
  <rect x="153" y="81" width="48" height="84" rx="3" fill="#126FD0"/>
  <rect x="166" y="96" width="10" height="12" fill="#fff"/>
  <rect x="185" y="96" width="10" height="12" fill="#fff"/>
  <rect x="166" y="119" width="10" height="12" fill="#fff"/>
  <rect x="185" y="119" width="10" height="12" fill="#fff"/>
  <rect x="166" y="142" width="10" height="12" fill="#fff"/>
  <path d="M192 126c0-10.8 8.7-19.5 19.5-19.5S231 115.2 231 126c6.9 2.7 11.5 9 11.5 16.1 0 9.5-7.7 17.2-17.2 17.2h-27.5c-9.5 0-17.2-7.7-17.2-17.2 0-7.1 4.6-13.4 11.4-16.1Z" fill="#37A829"/>
  <rect x="208" y="155" width="7" height="23" rx="2" fill="#276A2B"/>
</svg>
